<?xml version="1.0" standalone="no"?>
<!DOCTYPE svg PUBLIC "-//W3C//DTD SVG 20010904//EN"
 "http://www.w3.org/TR/2001/REC-SVG-20010904/DTD/svg10.dtd">
<svg version="1.0" xmlns="http://www.w3.org/2000/svg"
 width="700.000000pt" height="700.000000pt" viewBox="0 0 700.000000 700.000000"
 preserveAspectRatio="xMidYMid meet">
<metadata>
Created by potrace 1.11, written by Peter Selinger 2001-2013
</metadata>
<g transform="translate(0.000000,700.000000) scale(0.100000,-0.100000)"
fill="#000000" stroke="none">
<path d="M0 5310 l0 -1690 142 104 c137 100 143 103 163 87 12 -9 315 -263
674 -566 359 -302 656 -551 660 -553 4 -1 98 86 209 194 l202 196 499 -311
c274 -171 501 -311 505 -311 4 0 -57 79 -134 175 -77 96 -140 177 -140 179 0
3 -108 141 -240 307 -132 165 -242 310 -245 322 -12 52 -41 201 -168 852
l-133 690 -416 21 c-229 12 -423 24 -430 26 -10 4 -20 153 -45 682 l-31 677
139 299 c76 164 139 301 139 304 0 3 -304 6 -675 6 l-675 0 0 -1690z"/>
<path d="M1611 6996 c2 -1 189 -112 414 -246 226 -133 413 -245 418 -249 4 -4
-74 -276 -173 -605 -100 -329 -180 -600 -178 -602 2 -2 143 -61 313 -132 l310
-128 -3 -30 c-2 -16 -44 -292 -93 -613 -49 -321 -89 -592 -89 -601 0 -12 16
-20 63 -31 l62 -15 1 -249 c0 -138 1 -255 2 -260 1 -6 15 -18 31 -28 l29 -17
68 75 c37 41 71 75 75 75 7 0 239 -123 419 -222 l55 -30 -26 28 c-14 16 -73
83 -131 149 -58 66 -135 152 -171 190 l-65 70 -72 -38 c-39 -22 -74 -36 -77
-33 -3 3 -29 40 -58 83 l-51 77 42 115 c42 115 42 116 120 188 72 67 92 78
223 134 144 61 145 61 280 70 98 7 148 6 179 -2 23 -6 42 -14 42 -17 0 -3 -70
-76 -156 -164 -85 -87 -153 -164 -151 -171 2 -7 -11 -33 -29 -58 l-34 -47 0
-119 0 -119 63 -61 c36 -35 74 -63 90 -65 27 -5 27 -5 -10 31 -46 43 -53 55
-98 149 -34 73 -35 73 -18 115 21 54 80 128 97 121 11 -4 11 -15 0 -62 -18
-76 -17 -83 5 -47 10 17 33 44 52 60 18 17 28 22 20 13 -18 -24 -59 -214 -49
-232 6 -10 3 -14 -8 -12 -9 1 -22 13 -30 27 l-13 24 -1 -25 c0 -50 11 -72 34
-66 14 4 33 -4 58 -25 110 -88 262 -72 293 31 l8 25 8 -23 c5 -12 15 -22 23
-22 9 0 12 -7 9 -20 -9 -32 12 -23 32 14 11 19 22 33 26 30 4 -2 13 4 19 13 9
15 10 13 6 -12 -21 -121 -47 -297 -44 -300 2 -2 33 19 68 47 47 36 78 71 114
129 27 44 50 78 52 76 2 -1 -21 -109 -50 -240 -37 -166 -50 -240 -42 -245 6
-5 48 -26 94 -47 45 -21 82 -43 82 -48 0 -6 -55 -156 -122 -334 l-122 -323
-30 0 c-158 1 -292 26 -1108 205 -463 102 -849 188 -856 190 -9 3 -69 -109
-193 -360 -98 -201 -185 -365 -192 -365 -6 1 -338 124 -737 274 l-725 273 -3
-890 c-1 -490 -1 -892 1 -893 4 -5 1610 -35 1614 -30 2 2 34 260 71 574 37
314 70 573 73 576 3 3 473 64 1045 137 571 72 1095 139 1164 148 l125 17 218
152 c120 84 220 152 223 152 5 0 390 265 408 281 7 6 -169 559 -178 559 -2 0
-73 -16 -159 -35 -86 -19 -161 -35 -167 -35 -5 0 -90 160 -187 355 -118 235
-183 355 -193 355 -9 0 -22 8 -30 18 -26 30 -90 122 -90 128 0 3 19 -8 41 -25
l42 -30 30 25 c16 14 33 24 38 22 4 -2 141 -131 304 -288 163 -157 301 -287
306 -288 5 -2 89 46 186 107 97 61 177 110 178 109 1 -2 80 -104 175 -228 95
-124 177 -230 182 -237 8 -10 -364 -540 -826 -1178 -48 -66 -85 -125 -84 -131
2 -7 103 -129 225 -273 123 -143 224 -264 225 -269 3 -7 -708 -754 -1051
-1104 l-115 -118 1602 0 1602 0 0 3500 0 3500 -2697 0 c-1483 0 -2694 -2
-2692 -4z m2216 -3343 c32 -16 34 -16 58 7 23 21 26 22 47 7 13 -9 46 -37 74
-64 l52 -48 -21 -92 c-11 -51 -23 -93 -26 -93 -3 0 -33 47 -66 104 -54 95 -61
103 -81 96 -16 -6 -26 -5 -35 6 -17 21 -21 11 -9 -21 16 -41 5 -41 -20 -1 -30
50 -42 45 -25 -11 l14 -46 -38 37 c-20 20 -40 34 -43 31 -6 -6 -51 51 -60 76
-5 12 6 9 45 -12 65 -36 73 -36 49 -1 -35 51 -36 56 -4 33 18 -12 32 -18 32
-12 0 5 -4 13 -10 16 -5 3 -15 16 -21 27 -12 22 -12 22 22 -1 19 -12 49 -29
66 -38z"/>
<path d="M3696 3587 c3 -10 9 -15 12 -12 3 3 0 11 -7 18 -10 9 -11 8 -5 -6z"/>
</g>
</svg>
