<?xml version="1.0" standalone="no"?>
<!DOCTYPE svg PUBLIC "-//W3C//DTD SVG 20010904//EN"
 "http://www.w3.org/TR/2001/REC-SVG-20010904/DTD/svg10.dtd">
<svg version="1.0" xmlns="http://www.w3.org/2000/svg"
 width="180.000000pt" height="180.000000pt" viewBox="0 0 180.000000 180.000000"
 preserveAspectRatio="xMidYMid meet">
<metadata>
Created by potrace 1.11, written by Peter Selinger 2001-2013
</metadata>
<g transform="translate(0.000000,180.000000) scale(0.100000,-0.100000)"
fill="#000000" stroke="none">
<path d="M435 1787 c11 -8 59 -37 107 -66 49 -29 85 -57 83 -64 -36 -106 -85
-291 -78 -297 4 -4 39 -20 76 -35 37 -16 70 -31 71 -34 2 -3 -7 -75 -20 -160
-22 -140 -23 -155 -8 -165 11 -8 18 -34 21 -80 l6 -67 22 21 23 21 41 -20 c57
-30 60 -26 16 19 -28 28 -44 38 -59 34 -30 -7 -49 27 -35 63 23 62 91 102 174
103 l49 0 -41 -42 c-38 -40 -63 -77 -63 -93 0 -4 8 3 19 16 18 23 18 23 25 2
4 -11 2 -33 -4 -48 -10 -27 -11 -27 -25 -9 -8 10 -15 14 -15 7 0 -12 18 -27
35 -28 6 -1 22 -5 38 -9 18 -6 32 -4 43 5 9 7 24 14 33 16 14 2 17 -4 13 -27
-3 -18 0 -30 7 -30 14 0 14 40 1 74 -6 16 -15 24 -23 20 -8 -3 -17 2 -20 10
-7 17 1 20 43 16 50 -4 54 -19 32 -115 l-20 -87 24 -10 c13 -6 24 -14 24 -17
0 -4 -14 -42 -30 -85 -17 -43 -28 -81 -26 -84 13 -12 156 36 211 72 33 21 62
40 63 41 8 7 -43 145 -53 145 -5 0 -25 -4 -43 -9 l-33 -10 -47 95 c-45 91 -68
114 -94 97 -16 -9 -60 -5 -72 8 -6 5 4 9 27 9 20 0 37 4 37 8 0 4 17 6 38 4
30 -3 50 -17 108 -74 l72 -70 44 26 c25 14 47 26 50 26 3 0 26 -27 52 -60 l47
-61 -120 -167 -119 -167 29 -35 c16 -19 42 -52 59 -72 l31 -36 -146 -150 c-80
-82 -145 -152 -145 -156 0 -3 182 -6 405 -6 l405 0 0 900 0 900 -692 0 c-579
0 -689 -2 -673 -13z"/>
<path d="M165 1155 c-131 -41 -139 -41 -153 -12 -8 17 -11 -2 -11 -90 -1 -111
4 -128 29 -98 31 37 47 30 196 -97 80 -68 157 -131 170 -142 l24 -18 55 47
c62 53 45 56 190 -35 52 -33 97 -60 100 -60 6 0 -98 137 -147 194 l-34 39 -31
-17 c-18 -9 -38 -16 -45 -16 -7 0 -44 55 -83 122 -38 67 -82 142 -96 167 -15
25 -33 47 -40 48 -8 1 -63 -14 -124 -32z"/>
</g>
</svg>
